<?xml version="1.0" standalone="no"?>
<!DOCTYPE svg PUBLIC "-//W3C//DTD SVG 20010904//EN"
 "http://www.w3.org/TR/2001/REC-SVG-20010904/DTD/svg10.dtd">
<svg version="1.0" xmlns="http://www.w3.org/2000/svg"
 width="462.000000pt" height="197.000000pt" viewBox="0 0 462.000000 197.000000"
 preserveAspectRatio="xMidYMid meet">

<g transform="translate(0.000000,197.000000) scale(0.100000,-0.100000)"
fill="#000000" stroke="none">
<path d="M1867 1268 c-22 -11 -35 -23 -31 -30 4 -6 3 -8 -4 -4 -12 7 -43 -18
-173 -143 -48 -47 -86 -88 -83 -93 3 -5 1 -7 -4 -6 -15 4 -123 -135 -117 -150
3 -7 1 -11 -4 -8 -9 6 -26 -18 -102 -139 -24 -39 -50 -80 -57 -90 -6 -11 -15
-27 -19 -35 -4 -8 -13 -21 -21 -29 -7 -7 -11 -20 -8 -27 3 -8 0 -13 -7 -11 -6
1 -19 -13 -29 -32 -41 -81 -46 -67 -23 74 9 51 15 98 14 102 -1 4 1 15 5 24
13 29 3 92 -15 94 -13 2 -63 -56 -64 -74 -1 -15 -88 -151 -97 -151 -6 0 -7 7
-4 16 18 47 47 181 43 201 -2 12 -1 20 3 18 13 -8 22 127 11 162 -25 85 -89
124 -174 105 l-42 -10 53 -1 c76 -1 109 -24 127 -85 26 -88 -3 -246 -94 -511
-44 -127 -102 -287 -130 -357 -8 -23 -8 -28 4 -28 18 0 48 56 39 73 -4 7 -4 9
1 5 9 -9 68 110 67 136 -1 10 2 15 5 12 6 -6 163 307 163 325 0 5 4 9 9 9 5 0
15 16 21 35 11 32 18 39 37 33 4 -2 6 -16 5 -33 -2 -23 -1 -27 7 -15 7 9 11
10 11 3 0 -7 -6 -16 -14 -20 -18 -11 -52 -231 -38 -245 20 -20 41 1 101 104
82 137 166 268 224 347 25 35 44 68 41 73 -3 5 -1 7 3 6 15 -5 115 121 107
134 -4 7 -3 8 4 4 15 -9 65 41 56 56 -4 7 -3 8 4 4 14 -9 66 40 57 54 -3 5 0
8 7 5 7 -3 30 11 51 30 21 19 41 35 44 35 2 0 18 9 34 21 16 11 39 19 52 17
61 -8 15 -209 -163 -708 -46 -130 -74 -201 -154 -394 -21 -48 -35 -90 -32 -93
12 -12 145 293 236 543 146 398 197 617 156 663 -22 24 -52 23 -99 -1z"/>
<path d="M820 1020 c-18 -12 -2 -12 25 0 13 6 15 9 5 9 -8 0 -22 -4 -30 -9z"/>
<path d="M2701 999 c-6 -13 -15 -43 -21 -66 -10 -40 -13 -42 -55 -49 -25 -3
-45 -10 -45 -14 0 -4 15 -5 33 -1 45 11 58 5 47 -22 -13 -30 -41 -144 -38
-154 10 -35 -56 -113 -107 -125 -16 -4 -20 1 -21 23 -1 16 3 26 7 23 5 -3 9
-1 9 5 0 5 3 16 6 25 4 10 1 16 -7 16 -7 0 -10 -3 -6 -6 7 -7 -3 -21 -54 -75
-31 -33 -43 -39 -77 -39 -40 0 -54 12 -44 38 2 6 17 12 33 12 28 0 69 30 69
50 0 6 -7 13 -15 16 -30 12 -64 -7 -106 -57 -33 -40 -38 -49 -20 -39 21 10 23
10 18 -3 -14 -37 49 -49 110 -20 19 9 37 22 40 30 7 17 23 17 23 -1 0 -20 28
-28 53 -15 12 6 36 25 53 41 26 25 31 26 31 11 0 -39 4 -43 37 -43 38 0 82 31
117 83 15 22 7 16 -23 -16 -24 -26 -47 -45 -50 -41 -4 3 -15 1 -27 -5 -17 -9
-22 -8 -31 10 -9 16 -6 48 15 147 15 70 31 132 36 137 5 6 29 15 52 22 l42 12
-47 -6 -47 -5 15 57 c16 59 12 86 -5 44z m-291 -359 c-8 -5 -11 -10 -6 -10 5
0 3 -7 -4 -15 -14 -16 -60 -21 -60 -6 0 15 42 41 65 41 16 0 17 -2 5 -10z"/>
<path d="M758 994 c-39 -21 -35 -28 5 -8 37 19 44 24 31 24 -5 -1 -21 -8 -36
-16z"/>
<path d="M630 921 c-41 -27 -93 -65 -115 -84 -22 -19 -58 -50 -79 -68 -52 -45
-147 -160 -140 -171 3 -4 1 -8 -5 -8 -25 0 -78 -151 -65 -184 9 -23 24 -9 24
22 0 91 60 192 185 317 91 91 109 105 223 182 35 24 60 43 55 43 -5 0 -42 -22
-83 -49z"/>
<path d="M2180 860 c-6 -22 -8 -45 -5 -50 3 -6 2 -10 -3 -10 -5 0 -13 -19 -19
-42 -6 -24 -23 -81 -38 -128 -14 -47 -28 -93 -29 -102 -1 -10 -6 -21 -11 -25
-4 -5 -4 -1 0 7 6 10 1 9 -13 -4 -27 -23 -52 -14 -52 19 0 16 -6 25 -15 25 -8
0 -15 -3 -15 -8 0 -12 -58 -72 -69 -72 -15 0 -14 33 1 48 7 7 8 12 4 12 -5 0
7 14 25 30 20 18 41 28 52 26 11 -3 17 0 14 7 -9 27 -40 17 -78 -23 -87 -91
-68 -165 23 -90 30 25 37 27 42 14 5 -13 15 -15 45 -10 37 6 38 5 34 -22 -3
-22 -1 -21 13 11 12 28 22 37 40 37 13 0 24 5 24 10 0 6 -4 10 -10 10 -23 0
-7 31 33 61 76 58 69 59 -20 2 -20 -13 -21 -13 -19 9 2 13 8 39 14 58 24 72
59 240 51 240 -4 0 -13 -18 -19 -40z"/>
<path d="M3960 875 c-10 -12 -10 -18 0 -30 25 -30 67 -7 49 27 -12 22 -32 23
-49 3z"/>
<path d="M2532 745 c-7 -15 -11 -30 -8 -32 7 -7 28 36 24 49 -2 6 -9 -2 -16
-17z"/>
<path d="M2245 550 c-3 -5 -25 -15 -48 -21 -23 -7 -35 -14 -27 -16 20 -5 90
24 90 37 0 13 -7 13 -15 0z"/>
</g>
</svg>
